<svg width="50" height="52" viewBox="0 0 50 52" fill="none" xmlns="http://www.w3.org/2000/svg">
<path fill-rule="evenodd" clip-rule="evenodd" d="M8.125 22.0125V16.875C8.125 12.3995 9.9029 8.10725 13.0676 4.94257C16.2323 1.7779 20.5245 0 25 0C29.4755 0 33.7677 1.7779 36.9324 4.94257C40.0971 8.10725 41.875 12.3995 41.875 16.875V22.0125C44.6625 22.22 46.475 22.745 47.8025 24.0725C50 26.2675 50 29.805 50 36.875C50 43.945 50 47.4825 47.8025 49.6775C45.6075 51.875 42.07 51.875 35 51.875H15C7.93 51.875 4.3925 51.875 2.1975 49.6775C-1.49012e-07 47.4825 0 43.945 0 36.875C0 29.805 -1.49012e-07 26.2675 2.1975 24.0725C3.5225 22.745 5.3375 22.22 8.125 22.0125ZM11.875 16.875C11.875 13.394 13.2578 10.0556 15.7192 7.59422C18.1806 5.13281 21.519 3.75 25 3.75C28.481 3.75 31.8194 5.13281 34.2808 7.59422C36.7422 10.0556 38.125 13.394 38.125 16.875V21.885C37.1683 21.8767 36.1267 21.8733 35 21.875H15C13.8717 21.8733 12.83 21.8767 11.875 21.885V16.875Z" fill="white"/>
</svg>
